<?xml version="1.0" encoding="utf-8" ?><svg xmlns="http://www.w3.org/2000/svg" xmlns:xlink="http://www.w3.org/1999/xlink" width="1817" height="2048" viewBox="0 0 1817 2048"><path fill="#040303" d="M1324.22 627.371C1326.85 628.549 1326.92 629.241 1327.63 632.088C1344.31 698.621 1331.23 768.175 1312.05 832.653C1307.44 848.156 1302.97 865.223 1294.8 879.196C1241.92 968.686 1187.09 985.333 1090.74 1010.05C1087.92 1031.04 1085.02 1045.09 1086.98 1066.86C1095.16 1157.56 1195.62 1160.06 1234.2 1229.57C1269.74 1293.6 1264.56 1388.21 1246.76 1457.29C1243.43 1470.2 1227.43 1518.65 1218.31 1523.95L1216.93 1523.12C1214.55 1516.61 1214.42 1501.02 1213.51 1493.25C1210.2 1464.85 1207.48 1436.28 1201.54 1408.27C1191.18 1359.42 1170.12 1311.87 1126.6 1283.84C1099.26 1266.23 1068.94 1261.6 1037.38 1268.84C904.553 1299.32 841.734 1479.82 729.3 1503.2C701.772 1508.92 670.919 1502.25 647.549 1486.73C634.468 1478.38 625.657 1471.92 614.021 1461.85C635.216 1448.25 644.103 1445.96 664.729 1435.76C689.079 1423.72 723.914 1390.65 741.017 1368.96C811.851 1279.14 839.489 1163.36 826.511 1050.68C806.23 1060.47 791.069 1070.52 772.297 1083.03C734.322 1108.35 701.412 1112.54 657.26 1103.58C608.449 1093.68 544.397 1054.02 517.589 1011.59C565.248 1013 605.664 1035.38 651.829 1030.23C709.624 1023.77 762.818 967.32 797.23 922.898C832.511 877.355 857.273 830.178 918.413 812.726C1010.33 786.49 1095.25 873.7 1182.93 846.001C1228.97 831.458 1265.22 775.781 1283.12 732.873C1297.62 698.124 1307.27 662.183 1324.22 627.371Z"/><path fill="#D10A02" d="M943.647 949.229C942.651 934.726 947.74 914.314 949.389 900.118C951.21 887.382 946.503 875.708 945.399 863.364C942.195 827.552 972.404 857.451 971.42 873.264C973.208 880.811 978.853 888.681 980.42 895.96C989.714 939.137 1001.57 994.167 960.884 1025.58C938.553 1042.83 930.746 1068.65 927.281 1096C898.224 1103.16 887.19 1107.16 876.951 1071.44C872.172 1054.76 884.972 1039.85 893.023 1026.69C905.676 1006.87 938.664 971.607 943.647 949.229Z"/><path fill="#1A0104" d="M943.647 949.229C942.651 934.726 947.74 914.314 949.389 900.118C951.21 887.382 946.503 875.708 945.399 863.364C942.195 827.552 972.404 857.451 971.42 873.264C969.144 869.203 965.407 861.306 960.012 863.877C958.39 868.591 958.734 878.974 958.245 884.84C956.666 903.81 951.78 932.528 943.647 949.229Z"/><path fill="#FEC51B" d="M335.2 713.511C389.385 712.245 443.587 711.821 497.786 712.24C515.712 712.238 564.102 711.252 580.295 713.366C582.085 716.847 582.294 738.533 582.275 743.949C580.933 746.733 582.412 904.888 582.468 920.736C582.474 927.04 583.504 958.504 581.186 961.794L563.542 962.23L406.5 961.891C382.298 961.932 358.655 962.468 334.438 961.838C333.266 939.484 334.085 914.892 333.886 892.297C333.414 838.786 334.943 785.238 334.036 731.74C335.727 725.273 335.307 720.169 335.2 713.511Z"/><path fill="#040303" d="M932.163 467.368C998.422 462.37 1034.92 535.427 1043.91 591.505C1056.88 672.437 1023.3 773.369 927.755 777.636C905.353 776.955 885.294 769.946 867.881 755.015C799.256 696.173 791.909 577.089 846.64 506.854C863.447 485.285 905.428 469.469 932.163 467.368Z"/><path fill="#AC0200" d="M473.969 526.099C491.23 526.463 630.836 524.979 635.724 526.875C642.31 527.021 650.285 527.425 656.701 526.759C664.448 531.541 676.481 527.899 683.621 529.295C689.792 530.502 687.209 533.311 698.923 534.066L703.434 534.667C706.567 538.936 699.345 545.623 696.35 549.774C691.294 555.402 680.788 571.873 674.977 579.603C644.584 620.029 615.095 661.484 585.254 702.388C527.617 705.185 468.828 702.886 411.099 703.195C399.923 703.255 344.597 700.998 338.47 703.339L337.687 700.837C338.598 698.437 338.736 699.482 338.096 697.535C336.209 697.258 334.368 697.109 332.461 697.084C333.168 694.409 334.337 693.68 336.337 691.759L340.39 692.267C346.841 689.178 353.093 674.337 359.41 667.789L356.22 666.697C356.662 663.86 361.975 662.701 365.951 657.059C370.419 650.72 394.814 617.63 398.383 614.805C400.815 612.778 407.366 603.696 408.163 601.12C407.595 594.608 415.06 593.323 418.925 584.529L416.269 582.085C417.98 578.746 420.278 575.773 422.461 572.706C425.24 572.849 424.707 572.967 427.335 574.499L427.941 573.919L426.613 571.612C428.081 568.084 434.749 565.507 436.882 562.415C441.46 555.78 448.101 547.571 450.04 539.832L448.589 537.167C458.161 523.61 463.083 529.581 473.969 526.099Z"/><path fill="#FEFEFE" d="M473.969 526.099C491.23 526.463 630.836 524.979 635.724 526.875C630.636 529.293 627.514 526.412 625.048 527.212C609.872 532.139 575.02 525.705 562.083 530.46C565.685 532.158 583.919 531.341 589.322 531.246L589.596 532.504C557.371 533.617 524.687 532.215 492.432 532.324C474.051 532.386 463.359 522.548 452.29 540.419L450.04 539.832L448.589 537.167C458.161 523.61 463.083 529.581 473.969 526.099Z"/><path fill="#D10A02" d="M480.584 536.499C484.747 536.338 489.618 537.367 494.307 537.421C545.835 538.009 597.299 535.885 648.827 536.023C656.846 536.044 679.659 535.181 685.988 537.527C682.416 545.065 670.371 539.94 666.676 541.554L667.557 542.505C683.197 547.023 681.856 542.618 693.811 540.869L689.158 545.217C687.997 549.44 686.226 550.793 684.132 554.104C683.886 554.495 684.307 562.45 683.228 563.543C677.175 569.675 670.105 572.968 664.662 580.403C661.942 584.118 661.526 587.807 659.713 590.2C651.387 601.191 641.753 611.463 633.448 622.484C630.066 626.973 627.713 633.27 624.431 637.917C614.572 651.878 603.595 666.378 593.453 680.032C590.01 684.668 572.831 699.534 566.738 699.785C525.269 701.493 482.832 700.08 441.247 700.518C433.611 700.599 389.085 700.871 385.991 700.063C389.583 700.078 390.988 700.166 394.47 699.498L393.6 698.5L378.297 698.077C382.617 697.882 385.668 698.327 388.899 695.726C385.662 695.598 382.933 695.43 379.711 695.097C374.257 694.413 358.56 693.435 356.099 689.836C363.227 676.059 379.898 661.967 388.277 648.66L390.586 649.299C409.108 641.334 399.729 634.697 406.503 620.037C410.834 610.664 424.081 599.504 430.427 590.742C438.956 578.968 451.634 553.374 465.982 548.632C474.001 546.036 482.307 544.433 490.716 543.857C504.411 543.026 615.805 548.01 619.452 545.7L609.991 543.673C618.024 543.349 658.986 544.291 662.258 541.38C655.077 539.47 638.399 540.667 630.331 540.488L561.002 539.5C546.37 539.365 534.25 538.553 519.529 539.604L517.873 541.669L515.543 540.618L516.477 540.026L515.675 540.805C518.009 541.798 524.418 542.71 527.056 542.949L525.95 543.55C521.955 543.436 507.439 543.37 504.534 542.398C506.968 541.458 506.312 541.945 508.253 540.355C502.643 540.367 482.66 540.885 478.961 538.283C479.51 538.157 480.06 538.031 480.609 537.904L480.584 536.499Z"/><path fill="#D10A02" d="M706.26 555.063C709.01 550.771 714.36 540.318 718.633 538.543C721.265 543.152 720.126 599.137 720.105 608.98L720.007 738.038C720.018 745.685 719.408 778.846 720.483 784.029C718.252 790.065 718.044 790.051 714.194 794.699L713.397 795.637L710.809 798.557C711.563 801.607 712.626 802.359 714.738 804.664L714.205 805.184C710.795 804.983 711.417 803.629 708.386 802.588C682.36 837.777 657.085 875.344 631.469 911.068L632.082 912.139L636.74 913.026C637.168 915.764 629.397 926.223 626.852 927.088C625.516 923.813 627.5 921.293 627.675 916.972C625.388 917.917 621.835 924.878 620.878 927.469C618.414 934.141 616.491 929.836 614.023 936.926C613.398 942.382 606.387 946.752 604.116 951.311L602.804 951.006C600.22 954.661 599.228 956.673 597.231 960.71C594.474 954.273 595.432 732.774 596.34 711.589L669.255 608.378C677.15 597.19 684.983 585.958 692.752 574.683C696.412 569.466 703.397 560.324 706.26 555.063Z"/><path fill="#F20D01" d="M711.463 563.79C712.775 566.388 711.186 583.131 710.918 587.375C707.114 647.684 716.984 708.425 709.207 768.57C707.881 778.829 697.634 793.948 694.357 803.477C690.34 815.157 684.883 819.838 674.988 826.058L678.148 826.281L678.927 827.496C677.051 829.651 664.991 837.109 662.208 838.817C661.363 845.376 658.621 845.628 657.658 849.565C652.733 869.7 645.499 880.526 630.079 894.618C630.324 897.104 630.304 897.134 629.915 899.61C624.402 904.453 612.3 917.199 610.072 924.169C609.369 926.368 608.976 926.66 607.614 928.602L606.014 928.703C603.41 925.491 603.423 923.69 602.514 919.489L602.991 918.329L605.225 918.685C606.31 915.43 604.328 909.145 603.458 905.687C605.482 904.823 606.277 904.433 608.171 903.318C607.21 900.482 603.515 890.1 603.827 887.88C606.551 868.494 605.226 849.067 606.444 829.719C608.507 801.08 604.969 772.222 603.773 743.618C603.446 735.799 605.547 723.748 605.85 715.168C614.653 705.181 620.008 687.101 626.489 679.716C637.484 667.19 646.836 654.34 657.091 641.17C661.895 635.001 667.936 628.343 672.437 622.295C675.061 618.77 676.224 608.853 679.732 603.562L679.456 608.09L680.25 608.236C682.565 604 708.011 567.835 711.463 563.79Z"/><path fill="#040303" d="M1080.29 178.469C1070.64 200.405 1062.79 224.049 1056.06 247.032C1053.31 256.423 1051.96 268.096 1047.93 276.822C1046.5 279.93 1044.25 283.01 1041.03 284.408C1037.91 285.757 1034.55 285.114 1031.59 283.657C1024.42 280.118 1016.11 268.836 1013.99 261.147C1009.13 243.567 1047.25 165.547 1058.53 146.983C1062.72 140.088 1074.18 130.315 1075.32 122.481C1076.48 114.533 1068.91 101.679 1075.81 97.5895C1092.4 95.9795 1107.8 109.202 1111.24 124.924C1117.22 152.257 1111.74 180.818 1112.94 208.236L1112.99 209.142C1124.37 182.725 1135.87 164.748 1157.22 144.874C1161.44 140.951 1165.43 135.152 1170.76 132.65C1183.01 127.096 1197.95 146.257 1200.37 156.76C1203.44 170.062 1194.12 192.736 1191.01 206.467C1186.09 228.158 1180.83 249.004 1178.08 271.071C1176.57 282.148 1175.96 293.413 1175.14 304.537C1174.6 311.859 1176.02 321.585 1173.82 328.157C1166.66 331.761 1148.09 313.124 1139.34 309.005C1138.95 284.625 1142.25 263.999 1147.35 240.134C1150.44 225.68 1154.8 211.388 1156.31 196.709L1155.53 197.857C1135.74 227.087 1122.3 261.277 1109.12 293.388C1105.58 301.995 1083.15 277.332 1080.98 274.391C1083.54 267.286 1084.81 207.638 1081.88 201.93C1081.29 203.824 1081.42 203.525 1080.57 205.189L1079.27 204.171L1080.29 178.469Z"/><path fill="#040303" d="M582.194 1720.28C596.871 1719.91 609.817 1721.54 623.836 1726.24C644.816 1733.1 662.103 1748.19 671.721 1768.06C678.714 1782.31 683.732 1802.48 681.403 1818.36C675.57 1858.1 652.872 1894.14 616.355 1911.82C601.169 1918.25 594.429 1917.2 578.139 1915.82C573.478 1909.31 573.65 1908.58 565.83 1907C547.79 1903.35 541.561 1889.28 536.543 1873.11C553.789 1840 583.371 1798.07 587.251 1760.23C582.891 1757.17 578.478 1754.2 574.013 1751.3C572.983 1744.33 570.115 1729 574.65 1722.97C576.44 1720.59 579.136 1720.78 582.194 1720.28ZM605.768 1868.15C628.684 1854.02 670.497 1782.95 628.496 1769.14C627.787 1768.91 624.015 1768.82 622.995 1768.81C618.278 1804.3 611.861 1825.08 594.941 1856.81C592.56 1861.27 587.066 1868.79 589.411 1872.38C594.448 1873.12 601.164 1870.18 605.768 1868.15Z"/><path fill="#040303" d="M400.064 256.378C404.457 255.764 408.606 255.638 413.024 255.973C424.803 256.865 439.321 261.912 446.869 271.461C461.738 290.27 447.136 310.062 445.818 327.116C444.505 344.109 545.715 355.765 549.975 361.979C551.804 364.647 551.431 367.616 550.606 370.576C548.447 378.319 539.884 389.64 532.593 393.291C522.348 398.421 469.954 379.043 457.73 373.701C448.149 369.513 439.159 363.538 429.31 360.123L428.054 359.697C433.263 367.076 437.119 371.612 442.988 378.355C450.017 387.129 471.27 411.007 474.29 419.691C472.104 429.738 446.486 434.136 437.074 433.784C417.534 419.974 374.812 350.713 361.032 328.767C345.833 320.864 312.274 319.286 335.18 293.418C352.741 273.586 373.488 258.944 400.064 256.378ZM402.818 324.706C404.738 327.566 405.848 330.003 408.886 331.41L409.99 330.97C414.515 318.989 418.143 301.938 413.924 289.392C412.069 283.877 406.775 283.94 401.97 284.061C373.856 297.133 389.836 305.648 402.818 324.706Z"/><path fill="#040303" d="M1026.16 1769.15C1027.84 1769.18 1029.52 1769.25 1031.2 1769.35C1046.39 1770.34 1058.33 1780.93 1067.91 1791.72C1064.14 1826.56 1069.55 1879.95 1075.93 1914.72C1078.56 1929.03 1082.39 1943.4 1084.97 1957.79C1076.31 1957.92 1059.04 1955.86 1053.67 1949.24C1032.41 1923.04 1017.26 1887.9 996.902 1860.9L995.908 1859.59C997.926 1867.05 1011.3 1951.08 1010.94 1956.62C1009.95 1958.45 1008.81 1960.1 1006.77 1960.84C1002.42 1962.43 997.759 1961.38 993.735 1959.4C985.916 1955.57 975.016 1948.9 970.809 1941.09C961.639 1924.07 961.309 1840.96 956.418 1814.82C953.792 1800.79 944.167 1789.23 939.573 1775.85C953.121 1772.51 960.429 1772.49 974.182 1774.55C991.862 1791.35 1007.46 1818.25 1021.38 1838.64C1025.34 1844.43 1027.84 1852.03 1031.68 1856.21L1033.19 1856.24C1035.08 1851.98 1032.49 1843.23 1031.65 1838.48C1027.58 1815.36 1026.13 1792.55 1026.16 1769.15Z"/><path fill="#040303" d="M1434.81 528.016C1411.8 501.663 1403.61 478.994 1422.03 445.71C1440.89 415.059 1467.52 391.469 1502.19 380.468C1548.46 365.203 1606.32 394.657 1575.34 448.946C1560.36 475.202 1538.67 466.73 1534.75 439.277C1539.65 434.447 1550.03 426.918 1550.6 420.909C1550.1 419.805 1549.76 418.266 1548.62 417.975C1523.86 411.654 1476.61 438.326 1464.96 456.461C1460.52 458.341 1459.73 459.509 1457.34 463.879C1449.2 472.919 1446.29 479.784 1443.12 491.223C1452.24 490.913 1469.35 490.934 1476.33 483.708C1480.8 479.076 1474.27 473.837 1474.99 471.021C1476.94 463.382 1485.29 453.412 1490.37 447.499C1503.23 455.646 1518.19 471.156 1529.41 481.906C1540.43 492.47 1526.74 508.577 1517.52 515.538C1499.04 498.375 1505.23 517.93 1488.84 525.416C1470.76 533.679 1453.65 533.244 1434.81 528.016Z"/><path fill="#040303" d="M899.474 85.1947C907.151 82.8704 918.295 88.8802 923.862 94.1598C925.742 116.617 910.204 228.862 930.444 238.688C934.4 238.151 935.377 236.885 938.205 233.676C964.345 204.009 958.94 125.529 956.583 88.0891C960.408 86.8721 964.536 85.7728 968.417 84.6626C991.791 99.4204 995.517 108.467 996.262 135.654C997.741 173.886 994.495 281.747 933.216 275.02C919.328 273.496 901.063 257.791 893.789 246.181C873.649 214.036 878.439 168.181 880.26 131.722C880.976 121.138 885.827 99.9079 887.773 88.8548C892.231 87.78 895.22 86.7171 899.474 85.1947Z"/><path fill="#040303" d="M1407.89 249.773C1416.34 250.15 1425.1 261.251 1429.86 267.533C1429.86 271.708 1429.42 276.558 1429.15 280.778C1397.02 312.755 1365.97 347.916 1346.11 388.983L1352.24 396.706C1369.1 392.492 1378.32 389.239 1391.28 377.513C1411.72 359.03 1427.36 337.717 1443.5 315.53C1448.38 308.826 1453.83 297.142 1459.04 291.784C1470.21 287.397 1472.64 298.78 1476.66 306.763C1481.25 315.859 1477.49 325.595 1473.96 334.37C1472.94 336.713 1471.05 340.632 1469.55 342.869C1445.4 378.87 1409.47 424.484 1365.5 436.187C1349.19 440.528 1342.2 433.613 1329.07 425.609C1327.06 422.064 1323.89 417.161 1321.7 413.552C1313.1 399.414 1313.98 374.765 1318.76 359.857C1328.81 328.526 1379.9 264.564 1407.89 249.773Z"/><path fill="#040303" d="M297.649 355.489L299.086 355.358C349.86 350.935 359.437 400.44 361.402 440.022L360.975 440.829C357.284 447.684 357.174 448.53 351.805 454.304C348.179 454.824 341.706 455.129 339.644 458.148C343.779 468.623 383.708 491.981 389.24 504.632C391.587 510 363.151 525.22 357.57 526.484C353.653 525.824 351.545 523.349 348.419 520.678C324.364 501.477 303.035 482.21 281.512 460.311C274.793 453.473 266.974 440.986 260.745 436.414C252.45 431.278 235.912 431.038 228.298 428.18C221.195 425.514 238.611 395.372 241.887 390.985C258.123 369.247 271.202 360.058 297.649 355.489ZM280.366 402.565C284.591 408.374 302.061 428.659 307.294 433.271C309.793 435.653 310.719 437.081 314.104 437.526C323.211 430.878 315.81 398.039 308.417 390.322C304.291 386.016 303.785 385.941 297.886 384.941C288.616 390.801 286.88 393.571 280.366 402.565Z"/><path fill="#040303" d="M190.153 457.154C202.141 455.535 211.027 458.309 221.005 464.44C230.807 486.694 232.476 499.847 245.444 523.338C269.634 526.711 296.696 525.202 321.099 531.941C324.907 532.992 343.937 536.739 345.497 540.838C348.719 549.309 349.477 565.339 342.732 572.224C329.496 577.619 283.469 562.789 264.097 561.504L262.546 561.413C277.048 586.218 283.178 594.543 302.845 615.367C312.844 630.396 273.135 633.731 265.259 633.76C248.151 621.792 226.422 579.682 220.321 559.593C205.346 555.339 192.217 555.661 176.987 554.882C169.61 554.504 149.895 555.624 144.12 553.322C135.25 534.703 130.935 537.409 143.497 517.058C166.106 516.853 180.032 515.76 202.039 521.534C197.864 505.569 184.346 484.881 184.548 467.231C184.607 462.058 186.503 460.577 190.153 457.154Z"/><path fill="#040303" d="M844.027 1501.88C855.269 1502.99 865.379 1505.27 871.536 1515.75C873.576 1519.22 873.329 1519.86 876.36 1521.46C880.431 1520.41 884.218 1516.19 887.533 1513.18C907.839 1510.01 913.261 1517.14 924.092 1532.63C951.736 1503.16 978.658 1523.95 984.708 1556.68C989.8 1584.22 991.481 1620.84 983.696 1647.84C971.092 1645.71 964.255 1641.55 952.99 1635.7C952.044 1612.15 963.18 1576.2 953.217 1554.01C948.439 1543.37 934.847 1554.58 933.31 1567.06C933.366 1580.9 934.706 1636.15 928.055 1644.38C919.443 1646.69 898.594 1638.33 899.176 1628.9C900.684 1604.47 902.312 1581.86 901.664 1557.28C898.401 1552.4 896.418 1547.22 890.317 1546.75C850.598 1566.76 909.292 1683.55 844.92 1626.42C843.514 1608.12 846.474 1589.36 846.292 1570.84C846.064 1547.75 843.751 1524.93 844.027 1501.88Z"/><path fill="#040303" d="M1266.15 172.003C1287.71 170.745 1334.31 191.582 1349.56 207.61C1356.02 214.399 1354.77 230.666 1353.92 239.67C1340.17 249.923 1245.16 308.088 1243.82 317.893C1260.2 330.139 1330.98 339.971 1288.25 373.126C1277.7 375.848 1252.25 357.078 1240.52 353.135C1229.99 349.595 1219.07 345.492 1208.21 342.565C1202.67 340.788 1199.81 337.443 1197.87 332.148C1192.28 316.86 1190.42 307.118 1196.47 291.935C1202.52 288.541 1209.18 284.422 1215.02 280.651C1246.7 260.211 1281.23 242.182 1312.52 221.431C1297.54 214.954 1281.46 214.419 1268.03 206.254C1258.37 200.381 1259.97 179.937 1266.15 172.003Z"/><path fill="#040303" d="M670.942 113.459C712.128 112.978 714.403 136.679 704.979 169.334C698.339 170.413 684.468 173.947 678.913 172.176C666.489 168.216 674.192 150.471 670.571 144.35L668.469 144.7C620.67 185.892 675.32 194.11 706.822 206.548C752.787 224.697 746.135 285.336 702.271 301.343C679.56 309.857 661.312 309.447 645.372 288.766C643.897 255.982 656.698 263.363 676.742 276.347C690.122 269.7 698.709 259.225 698.254 243.53C698.309 241.112 694.894 237.631 692.724 236.879C642.997 219.659 583.559 198.941 627.278 136.471C636.062 123.92 654.747 114.694 670.942 113.459Z"/><path fill="#040303" d="M1163.96 1737.37C1167.8 1736.48 1178.57 1738.77 1183.01 1739.53C1192.7 1747.08 1193.79 1747.92 1199.74 1758.5C1199.52 1772.85 1200.55 1778.64 1194.13 1791.53C1150.58 1808.09 1166.23 1780.55 1160.69 1770.44L1158.73 1770.15C1151.36 1774.34 1148.21 1779.62 1144.07 1786.73C1127 1816.08 1177.18 1821.04 1198.45 1830.41C1245.75 1851.25 1237.06 1909.84 1191.64 1926.76C1172.96 1932.98 1160.8 1932.59 1144.06 1922.27C1138.9 1913.55 1132.57 1895.84 1144.58 1890.28C1150.79 1887.4 1165.39 1897.19 1171.33 1900.13C1179.02 1894.64 1192.57 1881.13 1190.22 1870.09C1186.66 1858.04 1172.33 1856.27 1162.34 1852.84C1141.02 1845.5 1106.21 1833.61 1103.8 1807.03C1100.2 1767.43 1126.64 1742.24 1163.96 1737.37Z"/><path fill="#040303" d="M798.785 87.3248C814.632 85.4439 831.231 88.1637 840.324 103.349C849.489 118.657 840.637 130.043 836.598 144.821L836.352 145.754C782.523 152.624 811.769 131.92 802.386 119.11L799.925 118.864C791.659 122.396 785.31 130.77 781.751 138.901C768.731 168.649 840.058 172.751 854.428 211.442C857.774 220.452 858.122 235.382 853.859 244.126C847.757 256.639 836.32 270.166 822.765 274.701C802.691 282.799 771.422 283.983 761.417 259.204C757.906 250.509 760.34 228.547 774.678 235.976C781.505 239.514 787.633 245.17 794.689 249.33C803.179 244.666 805.501 242.331 811.504 234.775C827.809 214.255 808.585 208.908 793 200.589C773.578 190.22 746.06 177.659 742.898 153.021C741.072 138.856 744.892 124.542 753.534 113.171C765.554 97.3973 779.647 90.0604 798.785 87.3248Z"/><path fill="#040303" d="M837.119 1777.37C846.642 1776.55 856.483 1777.04 865.996 1776.64C891.636 1775.57 908.988 1784.54 916.659 1809.94C903.556 1810.62 888.69 1810.23 875.434 1810.15C871.275 1827.22 867.738 1834.01 867.356 1852.15C876.53 1851.6 885.736 1852.05 894.813 1853.49C928.265 1887 887.896 1882.67 865.051 1882.07C859.079 1901.29 859.821 1911.3 859.911 1931.34C869.946 1931.3 879.907 1929.12 889.738 1927.2C892.004 1926.63 894.288 1926.12 896.585 1925.68C902.177 1924.66 907.665 1925.27 911.886 1929.07C922.96 1939.02 917.628 1947.82 910.232 1955.59C879.559 1964.12 868.285 1968.58 837.879 1960.51C831.724 1954.6 825.707 1948.34 822.805 1940.25C812.378 1911.2 822.316 1845.25 833.969 1818.2C827.451 1810.03 810.813 1790.19 824.691 1781.4C827.726 1779.47 833.486 1778.25 837.119 1777.37Z"/><path fill="#040303" d="M134.17 596.005L137.437 596.377C144.529 604.122 126.793 627.599 129.071 635.15C131.142 642.016 158.001 655.153 165.167 658.954C166.927 646.384 174.394 629.3 187.865 626.205C215.56 619.841 198.506 660.586 191.731 670.94C197.575 673.548 204.03 677.377 210.302 680.277C219.645 684.598 228.084 687.556 237.483 691.419C241.302 679.788 244.18 658.538 246.42 645.711C251.048 641.706 257.723 636.613 263.93 637.13C280.494 638.509 275.983 666.616 275.206 676.5C274.386 690.855 264.987 719.48 250.286 725.057C216.306 737.949 170.068 708.746 140.655 692.422C135.472 689.545 130.575 682.414 125.084 680.108C116.572 679.497 100.01 687.148 91.8223 683.713C73.2229 675.91 95.194 632.14 99.4853 619.566C104.095 606.059 121.742 600.221 134.17 596.005Z"/><path fill="#040303" d="M526.482 170.197C531.096 170.149 535.71 170.163 540.324 170.238C552.861 170.508 558.652 174.936 566.737 183.357C557.468 189.465 536.88 196.941 534.299 206.197C531.908 214.766 541.707 236.664 545.82 244.711C556.713 237.729 560.974 234.934 573.229 231.325C615.034 245.589 575.883 263.063 558.014 272.727C563.23 288.045 571.523 302.895 579.362 317C589.24 310.93 600.072 304.261 605.109 293.547C609.411 291.25 617.996 288.76 622.972 287.152C629.593 291.783 636.71 294.498 637.224 302.706C637.658 313.435 628.876 319.313 621.319 326.378C614.806 332.466 606.036 338.639 598.681 343.527C546.833 377.979 519.685 293.73 506.178 258.652C503.478 251.675 503.641 241.409 499.923 234.954C496.046 228.554 466.194 218.49 472.087 207.552C479.658 193.498 512.676 176.415 526.482 170.197Z"/><path fill="#040303" d="M1617.93 476.506C1634.58 478.626 1667.42 524.673 1669.08 541.921C1669.97 551.247 1661.41 569.088 1651.69 569.928C1645.62 567.397 1635.32 544.337 1629.82 535.929L1629.04 534.732C1623.02 539.138 1617.01 543.41 1610.91 547.683C1605.29 551.617 1595.07 554.853 1592.7 561.192C1592.89 568.18 1603.16 582.031 1607.44 589.986C1600.03 602.699 1591.44 617.791 1578.06 598.738C1573.73 592.563 1569.82 585.814 1565.82 579.394C1565.3 577.647 1565.06 577.752 1563.84 576.187C1558.88 575.876 1506.42 606.849 1495.39 611.043C1488.86 608.367 1479.18 579.336 1483.15 572.072C1486.39 566.135 1492.1 565.068 1497.73 562.136C1511.82 554.801 1526.44 548.471 1539.88 540.094C1545.93 536.278 1549.06 523.422 1556.58 520.796C1561.91 517.663 1566.39 527.502 1567.59 527.166C1577.59 524.379 1589.48 515.326 1599.52 511.467C1599.46 507.541 1599.73 503.489 1599.91 499.556C1605.5 491.551 1611.77 484.082 1617.93 476.506Z"/><path fill="#040303" d="M1676.58 586.708C1694.12 586.837 1724.86 655.282 1727.61 671.874C1715.32 708.71 1704.01 703.242 1692.08 670.549C1670.42 672.226 1610.91 694.78 1590.04 703.944C1559.06 717.286 1524.61 741.202 1545.21 681.906C1552.28 674.823 1565.34 670.785 1574.75 667.579C1607.15 656.535 1639.6 643.706 1672.48 634.263C1658.99 613.275 1649.66 603.437 1676.58 586.708Z"/><path fill="#040303" d="M1290.67 1681.37C1300.06 1681.79 1316.36 1686.86 1317.82 1697.66C1315.05 1704.71 1298.56 1712.74 1291.09 1717.17C1295 1725.44 1298.33 1736.14 1302.01 1744.84C1308.44 1760.01 1314.93 1775.59 1322.11 1790.42C1328.86 1804.04 1335.94 1817.51 1343.34 1830.79C1351.81 1845.84 1369.02 1864.02 1337.35 1864.06C1331 1864.06 1324.91 1863.55 1318.58 1863.01C1313.52 1858.84 1311.08 1855.88 1308.04 1850.14L1275.55 1779.62C1272.11 1772.01 1262.54 1746.58 1257.72 1742.88C1248.25 1741.1 1244.24 1752.27 1234.49 1754.04C1220.74 1756.53 1202.54 1739.33 1215.02 1727.41C1230.59 1712.54 1269.81 1684.62 1290.67 1681.37Z"/><path fill="#040303" d="M750.793 1760.73C760.744 1762.11 774.014 1772.42 778.645 1781.08C784.551 1792.12 776.711 1808.22 773.362 1819.41C769.522 1832.25 765.097 1844.72 762.41 1857.9C756.716 1883.44 752.736 1909.32 748.477 1935.13C747.606 1940.41 746.938 1945.75 745.438 1950.9C743.024 1953.74 742.341 1953.69 738.629 1954.9C724.208 1948.08 715.105 1942.54 707.542 1927.88C711.817 1901.58 739.737 1778.45 750.793 1760.73Z"/><path fill="#FAE800" fill-opacity="0.24705882" d="M696.35 549.774C700.686 551.546 702.596 552.052 706.26 555.063C703.397 560.324 696.412 569.466 692.752 574.683C684.983 585.958 677.15 597.19 669.255 608.378L596.34 711.589C595.432 732.774 594.474 954.273 597.231 960.71C592.519 960.857 591.925 960.701 587.663 962.401L586.11 964.163C584.185 962.605 583.521 962.575 581.186 961.794C583.504 958.504 582.474 927.04 582.468 920.736C585.837 916.705 581.191 853.507 586.447 841.52C588.182 845.7 586.063 851.52 589.961 859.945C590.353 859.335 593 774.205 593.815 765.344C594.029 760.421 594.44 736.21 592.602 733.761C590.406 737.205 588.741 745.897 589.117 749.949C588.491 754.752 588.841 762.002 584.396 764.188C582.952 761.786 583.481 748.744 583.425 744.999L582.275 743.949C582.294 738.533 582.085 716.847 580.295 713.366C564.102 711.252 515.712 712.238 497.786 712.24C443.587 711.821 389.385 712.245 335.2 713.511C335.307 720.169 335.727 725.273 334.036 731.74C332.845 728.392 332.819 727.077 332.407 723.493C331.973 719.354 331.438 715.923 331.757 711.758L333.46 713.159C334.893 707.022 333.861 705.101 337.687 700.837L338.47 703.339C344.597 700.998 399.923 703.255 411.099 703.195C468.828 702.886 527.617 705.185 585.254 702.388C615.095 661.484 644.584 620.029 674.977 579.603C680.788 571.873 691.294 555.402 696.35 549.774ZM436.87 708.504C448.979 709.056 460.622 709.289 472.692 707.462L473.155 706.789C467.243 705.355 437.404 703.618 432.77 705.494L431.845 705.664C424.958 706.872 414.182 707.253 406.967 707.504C402.885 707.647 401.059 705.75 395.575 706.589C407.086 706.97 425.82 708.84 436.87 708.504Z"/><path fill="#FDF900" fill-opacity="0.23529412" d="M432.77 705.494C437.404 703.618 467.243 705.355 473.155 706.789L472.692 707.462C460.622 709.289 448.979 709.056 436.87 708.504C425.82 708.84 407.086 706.97 395.575 706.589C401.059 705.75 402.885 707.647 406.967 707.504C414.182 707.253 424.958 706.872 431.845 705.664L432.77 705.494Z"/><path fill="#040303" d="M1073.35 1475.99C1079.74 1476.24 1090.66 1478.24 1095.81 1482.09C1106.49 1490.1 1097.59 1500.79 1098.85 1510.72C1104.28 1519.02 1121.94 1506.99 1129.31 1532.19C1129.15 1532.86 1128.98 1533.54 1128.82 1534.21C1119.31 1536.21 1107.02 1536 1099.01 1541.72C1098.68 1541.93 1098.36 1542.14 1098.04 1542.35C1092.21 1557.89 1096.33 1610.76 1103.17 1627.3C1105.17 1632.81 1106.79 1635.32 1104.66 1640.63C1094.96 1647.54 1069.99 1632.19 1068.09 1623.01C1063.15 1599.08 1068.17 1569.75 1067.36 1546.1L1067.31 1544.72C1059.36 1531.49 1041.48 1517.55 1071.48 1515.7C1070.99 1503.51 1069.82 1487.61 1073.35 1475.99Z"/><path fill="#040303" d="M1016.76 1512.97C1017.87 1513.13 1018.98 1513.32 1020.08 1513.54C1031.98 1515.85 1035.51 1519.23 1041.95 1528.6C1039.37 1562.24 1034.64 1595.13 1039.54 1628.78C1040.16 1633.05 1042 1641.81 1039.54 1645.36L1036.73 1645.56C1029.87 1644.31 1016.83 1635.86 1006.79 1632.35C1004.09 1611.07 1007.52 1584.72 1008.84 1563.25C1009.87 1546.55 1009.96 1528.3 1016.76 1512.97Z"/><path fill="#FAE800" fill-opacity="0.06666667" d="M332.407 723.493C332.819 727.077 332.845 728.392 334.036 731.74C334.943 785.238 333.414 838.786 333.886 892.297C334.085 914.892 333.266 939.484 334.438 961.838C358.655 962.468 382.298 961.932 406.5 961.891L563.542 962.23C555.578 968.154 524.575 967.244 513.72 967.829C507.254 968.178 501.091 969.759 494.729 969.556L493.846 968.834C486.177 968.096 478.966 963.569 472.918 969.81C468.364 971.304 457.528 967.134 450.163 970.842L449.972 971.032C442.793 970.451 417.682 967.377 412.767 969.594L412.901 968.377L412.256 969.631C406.798 968.109 396.382 965.179 391.646 966.822L390.742 969.962C376.542 967.419 382.66 973.257 373.629 980.149C368.949 983.721 360.632 981.92 355.136 980.767C355.062 978.49 355.117 978.555 354.35 976.428C350.695 975.021 351.936 975.418 347.615 976.089C342.122 972.128 338.141 970.675 332.761 966.592C334.251 963.062 333.095 960.159 331.49 956.94L330.625 957.885C326.52 944.473 329.488 915.933 328.788 900.88C327.436 871.807 329.569 842.031 328.742 813.028L327.22 812.109L326.757 810.25C329.054 804.546 329.825 766.287 326.1 760.868C330.663 758.938 325.656 735.297 332.407 723.493Z"/><defs><linearGradient id="gradient_0" gradientUnits="userSpaceOnUse" x1="717.45404" y1="673.4884" x2="725.3703" y2="673.51849"><stop offset="0" stop-color="#FDFDFD" stop-opacity="0.95294118"/><stop offset="1" stop-color="white"/></linearGradient></defs><path fill="url(#gradient_0)" d="M720.483 784.029C721.555 778.677 721.03 744.389 721.022 736.715L720.935 601.377C720.929 593.489 720.323 551.445 721.207 546.218C723.39 547.4 722.405 546.633 723.741 549.106L724.403 548.814C730.627 557.44 724.272 675.42 725.88 696.234C727.522 717.486 726.743 752.847 726.62 775.164C726.455 779.016 718.878 797.576 716.074 801.19L714.954 801.603C714.84 799.008 715.023 797.84 713.397 795.637L714.194 794.699C718.044 790.051 718.252 790.065 720.483 784.029Z"/><path fill="#040303" d="M1018.13 1456.07C1032.21 1455.77 1040.91 1463.57 1049.2 1473.82C1049.11 1484.06 1049.76 1491.09 1045.59 1500.65C1040.68 1502.47 1030.37 1498.6 1026.08 1495.9C1012.78 1487.51 1014.95 1469.22 1018.13 1456.07Z"/><path fill="#FDF900" fill-opacity="0.043137256" d="M563.542 962.23L581.186 961.794C583.521 962.575 584.185 962.605 586.11 964.163L582.289 967.877L582.372 969.546C585.99 972.393 585.429 971.08 586.226 974.767L585.677 976.591L581.187 976.975C580.13 979.113 580.411 978.28 580.2 980.694C574.857 982.348 549.67 981.629 541.791 981.983C539.638 980.645 539.413 979.389 538.41 977.039C531.922 975.83 527.311 978.17 522.63 976.431C522.557 974.761 522.531 973.431 522.565 971.76C517.942 969.338 464.399 975.417 453.489 970.991C452.622 970.64 451.121 970.767 450.163 970.842C457.528 967.134 468.364 971.304 472.918 969.81C479.882 969.862 487.873 970.122 494.729 969.556C501.091 969.759 507.254 968.178 513.72 967.829C524.575 967.244 555.578 968.154 563.542 962.23ZM538.332 972.801C534.345 969.125 527.976 970.777 522.755 971.416C527.66 974.485 532.845 974.127 538.332 972.801Z"/><path fill="#FDF900" fill-opacity="0.26274511" d="M582.275 743.949L583.425 744.999C583.481 748.744 582.952 761.786 584.396 764.188C588.841 762.002 588.491 754.752 589.117 749.949C589.591 756.171 590.189 762.383 590.91 768.582L591.808 761.721L593.895 763.143L592.976 762.014L593.815 765.344C593 774.205 590.353 859.335 589.961 859.945C586.063 851.52 588.182 845.7 586.447 841.52C581.191 853.507 585.837 916.705 582.468 920.736C582.412 904.888 580.933 746.733 582.275 743.949Z"/><path fill="#FEFEFE" fill-opacity="0.96470588" d="M336.337 691.759L336.259 691.038C345.826 679.961 391.458 612.648 397.292 610.48C397.285 612.445 397.535 613.036 398.383 614.805C394.814 617.63 370.419 650.72 365.951 657.059C361.975 662.701 356.662 663.86 356.22 666.697L359.41 667.789C353.093 674.337 346.841 689.178 340.39 692.267L336.337 691.759Z"/><path fill="#FEFEFE" fill-opacity="0.97647059" d="M327.22 812.109L328.742 813.028C329.569 842.031 327.436 871.807 328.788 900.88C329.488 915.933 326.52 944.473 330.625 957.885L331.49 956.94C333.095 960.159 334.251 963.062 332.761 966.592L326.269 959.677C326.289 938.974 326.556 913.342 326.716 893.002C326.815 880.395 325.186 820.189 327.22 812.109Z"/><path fill="#040303" fill-opacity="0.97647059" d="M1079.27 204.171L1080.57 205.189C1081.42 203.525 1081.29 203.824 1081.88 201.93C1084.81 207.638 1083.54 267.286 1080.98 274.391C1077.35 265.727 1079.15 216.173 1079.27 204.171Z"/><path fill="#FEFEFE" fill-opacity="0.78823531" d="M473.969 526.099C483.678 524.313 684.418 525.227 686.696 526.068C679.314 526.346 662.803 525.903 656.701 526.759C650.285 527.425 642.31 527.021 635.724 526.875C630.836 524.979 491.23 526.463 473.969 526.099Z"/><path fill="#FEFEFE" fill-opacity="0.96862745" d="M422.461 572.706C427.422 565.017 434.149 558.081 439.118 550.177C441.837 545.852 444.83 539.528 450.04 539.832C448.101 547.571 441.46 555.78 436.882 562.415C434.749 565.507 428.081 568.084 426.613 571.612L427.941 573.919L427.335 574.499C424.707 572.967 425.24 572.849 422.461 572.706Z"/><path fill="#FEFEFE" fill-opacity="0.97254902" d="M326.1 760.868C326.358 746.365 326.15 730.516 327.916 716.001C328.239 713.339 329.917 712.785 331.757 711.758C331.438 715.923 331.973 719.354 332.407 723.493C325.656 735.297 330.663 758.938 326.1 760.868Z"/><path fill="#FEFEFE" fill-opacity="0.98823529" d="M686.696 526.068C690.428 528.285 692.202 527.975 696.551 528.188C699.227 530.154 698.999 530.283 698.923 534.066C687.209 533.311 689.792 530.502 683.621 529.295C676.481 527.899 664.448 531.541 656.701 526.759C662.803 525.903 679.314 526.346 686.696 526.068Z"/><path fill="#FDF900" fill-opacity="0.27450982" d="M589.117 749.949C588.741 745.897 590.406 737.205 592.602 733.761C594.44 736.21 594.029 760.421 593.815 765.344L592.976 762.014L593.895 763.143L591.808 761.721L590.91 768.582C590.189 762.383 589.591 756.171 589.117 749.949Z"/><path fill="#FEFEFE" fill-opacity="0.96470588" d="M416.269 582.085L418.925 584.529C415.06 593.323 407.595 594.608 408.163 601.12L404.789 600.584C401.601 604.307 400.748 604.977 396.755 607.858C401.832 600.49 410.487 588.421 416.269 582.085Z"/><path fill="#FEFEFE" fill-opacity="0.97647059" d="M614.023 936.926C617.805 935.413 616.068 935.353 619.372 936.197C616.779 943.777 612.864 951.206 604.116 951.311C606.387 946.752 613.398 942.382 614.023 936.926Z"/><defs><linearGradient id="gradient_1" gradientUnits="userSpaceOnUse" x1="1463.9291" y1="464.20889" x2="1467.0249" y2="459.26892"><stop offset="0" stop-color="black" stop-opacity="0"/><stop offset="1" stop-color="#0F0016" stop-opacity="0.011764706"/></linearGradient></defs><path fill="url(#gradient_1)" d="M1464.96 456.461C1466.65 459.605 1467.03 460.435 1468.23 463.791L1468.15 461.147L1468.82 464.013C1466.69 464.95 1459.42 464.487 1457.34 463.879C1459.73 459.509 1460.52 458.341 1464.96 456.461Z"/><path fill="#FEFEFE" d="M390.742 969.962L391.646 966.822C396.382 965.179 406.798 968.109 412.256 969.631C406.323 970.143 396.93 969.922 390.742 969.962Z"/><path fill="#FEC51B" fill-opacity="0.054901961" d="M472.918 969.81C478.966 963.569 486.177 968.096 493.846 968.834L494.729 969.556C487.873 970.122 479.882 969.862 472.918 969.81Z"/></svg>