<?xml version="1.0" encoding="utf-8" ?><svg xmlns="http://www.w3.org/2000/svg" xmlns:xlink="http://www.w3.org/1999/xlink" width="1024" height="1024" viewBox="0 0 1024 1024"><path fill="#2CBA66" d="M511.279 53.8926C516.934 54.6998 581.613 94.1757 591.963 100.22L826.927 237.889L888.019 273.689C896.772 278.869 908.307 285.183 916.504 290.736C917.108 313.403 916.511 339.674 916.426 362.619L915.96 501.392L915.948 654.086C915.947 679.5 916.556 706.838 915.857 732.03C910.789 735.979 895.945 744.139 889.855 747.693L844.511 774.407L686.622 866.508L567.869 936.693L533.632 956.906C527.06 960.813 520.3 964.921 513.524 968.501C511.935 969.341 510.812 969.082 509.241 968.535C483.425 954.514 454.472 936.233 428.93 921.109L279.09 832.881L162.866 764.153L129.447 744.434C122.465 740.352 113.453 735.395 107.018 730.799L106.753 403.429C106.738 366.323 106.324 328.675 106.72 291.634C110.393 288.785 120.068 283.299 124.331 280.776C135.999 273.868 147.712 267.037 159.469 260.282L249.186 207.53L427.843 102.435C454.045 87.1142 484.836 68.0737 511.279 53.8926ZM253.825 733.053L444.794 845.356C467.203 858.736 489.713 871.947 512.322 884.986C543.337 866.449 574.467 848.104 605.709 829.953L748.451 745.573L810.972 708.891L833.085 695.898C836.666 693.779 842.866 690.321 846.034 687.884L846.054 569.812C846.056 549.093 846.453 526.734 845.925 506.183C825.471 493.28 800.445 479.456 779.199 467.032L662.526 398.366L587.855 354.356C561.393 338.785 536.121 320.317 503.887 322.21C480.355 324.322 459.765 333.249 444.332 351.501C434.687 362.906 429.431 377.011 431.097 391.949C434.641 423.727 463.982 435.824 488.14 449.805C513.691 464.507 539.164 479.345 564.558 494.318C580.866 503.868 602.299 515.424 617.141 526.349C644.977 546.837 664.019 576.969 667.745 611.701C671.019 642.06 662.008 672.466 642.723 696.141C618.878 725.674 583.643 742.113 546.302 745.924C520.162 748.808 493.71 745.454 469.117 736.135C453.795 730.474 438.083 720.748 423.922 712.358L377.453 684.646L250.926 609.628L203.237 581.52C194.801 576.539 185.532 570.619 176.97 566.073L177.006 687.538C202.181 702.71 228.376 718.377 253.825 733.053ZM176.871 333.506C177.501 382.757 176.078 433.256 177.107 482.302L404.344 615.235L460.733 648.306C472.648 655.322 486.059 663.933 498.675 669.242C527.462 681.356 570.014 673.014 586.363 644.524C592.066 634.799 593.557 623.169 590.494 612.319C584.664 591.48 564.924 578.178 547.008 568.283L433.723 505.564C426.326 501.241 418.672 496.829 411.75 491.773C386.392 473.249 366.299 446.971 358.221 416.332C350.061 384.909 354.667 351.533 371.034 323.495C392.139 287.903 429.374 263.818 469.025 253.804C498.708 246.529 529.819 247.538 558.968 256.721C579.036 262.947 596.606 273.841 614.599 284.351L659.561 310.599L846.035 419.2C846.041 391.181 846.49 361.874 846.002 333.934C812.927 313.757 777.464 293.837 743.856 274.288L578.25 177.234C555.946 164.082 532.952 151.113 510.979 137.526L314.475 252.932L224.024 306.023C208.493 315.12 192.564 324.784 176.871 333.506Z"/></svg>